<svg data-v-0dd9719b="" version="1.0" xmlns="http://www.w3.org/2000/svg" xmlns:xlink="http://www.w3.org/1999/xlink" width="680" height="500" viewBox="0 0 340.000000 250.000000" preserveAspectRatio="xMidYMid meet" color-interpolation-filters="sRGB" style="">   <g data-v-0dd9719b="" fill="#183883" class="icon-text-wrapper icon-svg-group iconsvg" transform="translate(140,95)"><g class="iconsvg-imagesvg" transform="translate(0,0)"><g><rect fill="#183883" fill-opacity="0" stroke-width="2" x="0" y="0" width="60" height="60" class="image-rect"></rect> <svg filter="url(#colors2152594282)" x="0" y="0" width="60" height="60" filtersec="colorsf4088615252" class="image-svg-svg primary" style="overflow: visible;"><svg xmlns="http://www.w3.org/2000/svg" xmlns:xlink="http://www.w3.org/1999/xlink" version="1.0" x="0px" y="0px" viewBox="5 5 90 90" enable-background="new 0 0 100 100" xml:space="preserve"><path d="M37.5,5H15C9.5,5,5,9.5,5,15v22.5c0,5.5,4.5,10,10,10h22.5c5.5,0,10-4.5,10-10V15C47.5,9.5,43,5,37.5,5z M36.3,27.5h-8.8  v8.8c0,0.7-0.6,1.3-1.3,1.3S25,36.9,25,36.3v-8.8h-8.8c-0.7,0-1.3-0.6-1.3-1.3s0.6-1.3,1.3-1.3H25v-8.8c0-0.7,0.6-1.3,1.3-1.3  s1.3,0.6,1.3,1.3V25h8.8c0.7,0,1.3,0.6,1.3,1.3S36.9,27.5,36.3,27.5z"></path><path d="M85,5H62.5c-5.5,0-10,4.5-10,10v22.5c0,5.5,4.5,10,10,10H85c5.5,0,10-4.5,10-10V15C95,9.5,90.5,5,85,5z M83.8,27.5h-20  c-0.7,0-1.3-0.6-1.3-1.3s0.6-1.3,1.3-1.3h20c0.7,0,1.3,0.6,1.3,1.3S84.4,27.5,83.8,27.5z"></path><path d="M85,52.5H62.5c-5.5,0-10,4.5-10,10V85c0,5.5,4.5,10,10,10H85c5.5,0,10-4.5,10-10V62.5C95,57,90.5,52.5,85,52.5z M83.8,80  h-20c-0.7,0-1.3-0.6-1.3-1.3s0.6-1.3,1.3-1.3h20c0.7,0,1.3,0.6,1.3,1.3S84.4,80,83.8,80z M83.8,70h-20c-0.7,0-1.3-0.6-1.3-1.3  s0.6-1.3,1.3-1.3h20c0.7,0,1.3,0.6,1.3,1.3S84.4,70,83.8,70z"></path><path d="M37.5,52.5H15c-5.5,0-10,4.5-10,10V85c0,5.5,4.5,10,10,10h22.5c5.5,0,10-4.5,10-10V62.5C47.5,57,43,52.5,37.5,52.5z   M37.1,82.9c0.5,0.5,0.5,1.3,0,1.8c-0.2,0.2-0.6,0.4-0.9,0.4s-0.6-0.1-0.9-0.4l-9.1-9.1l-9.1,9.1c-0.2,0.2-0.6,0.4-0.9,0.4  s-0.6-0.1-0.9-0.4c-0.5-0.5-0.5-1.3,0-1.8l9.1-9.1l-9.1-9.1c-0.5-0.5-0.5-1.3,0-1.8s1.3-0.5,1.8,0l9.1,9.1l9.1-9.1  c0.5-0.5,1.3-0.5,1.8,0s0.5,1.3,0,1.8L28,73.8L37.1,82.9z"></path></svg></svg> <defs><filter id="colors2152594282"><feColorMatrix type="matrix" values="0 0 0 0 0.109375  0 0 0 0 0.63671875  0 0 0 0 0.890625  0 0 0 1 0" class="icon-fecolormatrix"></feColorMatrix></filter> <filter id="colorsf4088615252"><feColorMatrix type="matrix" values="0 0 0 0 0.99609375  0 0 0 0 0.99609375  0 0 0 0 0.99609375  0 0 0 1 0" class="icon-fecolormatrix"></feColorMatrix></filter> <filter id="colorsb2443956346"><feColorMatrix type="matrix" values="0 0 0 0 0  0 0 0 0 0  0 0 0 0 0  0 0 0 1 0" class="icon-fecolormatrix"></feColorMatrix></filter></defs></g></g> <g transform="translate(67,30)"><g data-gra="path-name" fill-rule="" class="tp-name iconsvg-namesvg"><g transform="scale(1)"><g><path d="" transform="translate(0, 0)"></path></g> <!----> <!----> <!----> <!----> <!----> <!----> <!----></g></g> <!----></g></g><defs v-gra="od"></defs></svg>